<svg width="42" height="42" viewBox="0 0 42 42" fill="none" xmlns="http://www.w3.org/2000/svg">
<path d="M6.99989 17.4999L5.76264 18.7372L4.52539 17.4999L5.76264 16.2627L6.99989 17.4999ZM36.7499 31.4999C36.7499 31.9641 36.5655 32.4092 36.2373 32.7374C35.9091 33.0656 35.464 33.2499 34.9999 33.2499C34.5358 33.2499 34.0906 33.0656 33.7625 32.7374C33.4343 32.4092 33.2499 31.9641 33.2499 31.4999H36.7499ZM14.5126 27.4872L5.76264 18.7372L8.23714 16.2627L16.9871 25.0127L14.5126 27.4872ZM5.76264 16.2627L14.5126 7.5127L16.9871 9.98719L8.23714 18.7372L5.76264 16.2627ZM6.99989 15.7499H24.4999V19.2499H6.99989V15.7499ZM36.7499 27.9999V31.4999H33.2499V27.9999H36.7499ZM24.4999 15.7499C27.7488 15.7499 30.8646 17.0406 33.1619 19.3379C35.4593 21.6352 36.7499 24.751 36.7499 27.9999H33.2499C33.2499 25.6793 32.328 23.4537 30.6871 21.8128C29.0461 20.1718 26.8205 19.2499 24.4999 19.2499V15.7499Z" fill="currentcolor"/>
</svg>
