<svg width="64" height="64" viewBox="0 0 64 64" fill="none" xmlns="http://www.w3.org/2000/svg">
<path d="M59.7588 44.61L54.875 18.875C53.7675 13.8313 52 10 43.875 10H18.125C9.87505 10 8.23255 13.8313 7.12505 18.875L2.25005 44.61C1.37505 48.875 2.8038 52.2663 6.4213 53.5863C10.0388 54.9062 12.875 52.875 14.8975 48.9125L16.825 45.0975C16.992 44.7674 17.2472 44.49 17.5623 44.2963C17.8774 44.1025 18.2401 44 18.61 44H43.395C43.765 44 44.1277 44.1025 44.4428 44.2963C44.7579 44.49 45.0131 44.7674 45.18 45.0975L47.1075 48.9125C49.125 52.875 51.9675 54.9125 55.5838 53.5863C59.2 52.26 60.625 48.875 59.7588 44.61ZM28 30H22V36H18V30H12V26H18V20H22V26H28V30ZM36.5 30.5C36.0056 30.5 35.5222 30.3534 35.1111 30.0787C34.7 29.804 34.3796 29.4135 34.1903 28.9567C34.0011 28.4999 33.9516 27.9972 34.0481 27.5123C34.1445 27.0273 34.3826 26.5819 34.7323 26.2322C35.0819 25.8826 35.5274 25.6445 36.0123 25.548C36.4973 25.4516 36.9999 25.5011 37.4568 25.6903C37.9136 25.8795 38.304 26.2 38.5787 26.6111C38.8534 27.0222 39 27.5055 39 28C39 28.663 38.7367 29.2989 38.2678 29.7678C37.799 30.2366 37.1631 30.5 36.5 30.5ZM42 36C41.5056 36 41.0222 35.8534 40.6111 35.5787C40.2 35.304 39.8796 34.9135 39.6903 34.4567C39.5011 33.9999 39.4516 33.4972 39.5481 33.0123C39.6445 32.5273 39.8826 32.0819 40.2323 31.7322C40.5819 31.3826 41.0274 31.1445 41.5123 31.048C41.9973 30.9516 42.4999 31.0011 42.9568 31.1903C43.4136 31.3795 43.804 31.6999 44.0787 32.1111C44.3534 32.5222 44.5 33.0055 44.5 33.5C44.5 34.163 44.2367 34.7989 43.7678 35.2678C43.299 35.7366 42.6631 36 42 36ZM42 25C41.5056 25 41.0222 24.8534 40.6111 24.5787C40.2 24.304 39.8796 23.9135 39.6903 23.4567C39.5011 22.9999 39.4516 22.4972 39.5481 22.0123C39.6445 21.5273 39.8826 21.0819 40.2323 20.7322C40.5819 20.3826 41.0274 20.1445 41.5123 20.048C41.9973 19.9516 42.4999 20.0011 42.9568 20.1903C43.4136 20.3795 43.804 20.7 44.0787 21.1111C44.3534 21.5222 44.5 22.0055 44.5 22.5C44.5 23.163 44.2367 23.7989 43.7678 24.2678C43.299 24.7366 42.6631 25 42 25ZM47.5 30.5C47.0056 30.5 46.5222 30.3534 46.1111 30.0787C45.7 29.804 45.3796 29.4135 45.1903 28.9567C45.0011 28.4999 44.9516 27.9972 45.0481 27.5123C45.1445 27.0273 45.3826 26.5819 45.7323 26.2322C46.0819 25.8826 46.5274 25.6445 47.0123 25.548C47.4973 25.4516 47.9999 25.5011 48.4568 25.6903C48.9136 25.8795 49.304 26.2 49.5787 26.6111C49.8534 27.0222 50 27.5055 50 28C50 28.663 49.7367 29.2989 49.2678 29.7678C48.799 30.2366 48.1631 30.5 47.5 30.5Z" fill="currentcolor"/>
</svg>
