<svg width="1204" height="724" viewBox="0 0 1204 724" fill="none" xmlns="http://www.w3.org/2000/svg">
<path d="M1203 484.4V483.834L1202.51 483.542L1191 476.634V247.366L1202.51 240.457L1203 240.166V239.6V232.966V232.4V117.2V116.634L1202.51 116.343L1010.51 1.14251L1010.28 1H1010H914H913.723H902H901.723L901.486 1.14251L889.723 8.2H746.277L734.514 1.14251L734.277 1H734H722.277H722H194H193.723L193.486 1.14251L1.4855 116.343L1 116.634V117.2V232.4V232.966V239.6V240.166L1.4855 240.457L13 247.366V476.634L1.4855 483.542L1 483.834V484.4V491.034V491.6V606.8V607.366L1.4855 607.657L193.486 722.857L193.723 723H194H290H290.277H302H302.277L302.514 722.857L314.277 715.8H457.723L469.486 722.857L469.723 723H470H481.723H482H1010H1010.28L1010.51 722.857L1202.51 607.657L1203 607.366V606.8V491.6V491.034V484.4ZM902.277 3H910.39L889.723 15.4H746.277L725.61 3H733.723L745.486 10.0575L745.723 10.2H746H890H890.277L890.514 10.0575L902.277 3ZM3 239.034V234.166L25 247.366V476.634L3 489.834V484.966L14.5145 478.057L15 477.766V477.2V246.8V246.234L14.5145 245.943L3 239.034ZM301.723 721H293.61L314.277 708.6H457.723L478.39 721H470.277L458.514 713.943L458.277 713.8H458H314H313.723L313.486 713.943L301.723 721ZM1201 489.834L1179 476.634V247.366L1201 234.166V239.034L1189.49 245.943L1189 246.234V246.8V477.2V477.766L1189.49 478.057L1201 484.966V489.834Z" stroke="#8CEEED" stroke-width="2"/>
<path d="M962 722L946 707.6H690L674 722H962Z" fill="#8CEEED"/>
<path d="M530 2L514 16.4H258L242 2H530Z" fill="#8CEEED"/>
<path fill-rule="evenodd" clip-rule="evenodd" d="M226.64 30.7998H977.36L1154 136.784V587.216L977.36 693.2H226.64L50 587.216V136.784L226.64 30.7998Z" fill="#0D3954" fill-opacity="0.6"/>
</svg>
