<svg width="1000" height="408" viewBox="0 0 1000 408" fill="none" xmlns="http://www.w3.org/2000/svg">
<path fill-rule="evenodd" clip-rule="evenodd" d="M0 40V360L45.4545 400H272.727H281.25L278.977 398H46.5909L2.27273 359V41L46.5909 2H953.409L997.727 41V359L953.409 398H733.523L731.25 400H954.545L1000 360V40L954.545 0H45.4545L0 40Z" fill="#8CEEED"/>
<path fill-rule="evenodd" clip-rule="evenodd" d="M6 44.8V355.2L50.9091 394H293.789L361.771 368.265L281.63 392.06H52.0318L8.24545 354.23V45.77L52.0318 7.94H947.968L991.755 45.77V354.23L947.968 392.06H730.72L706.211 394H949.091L994 355.2V44.8L949.091 6H50.9091L6 44.8Z" fill="#0D3954" fill-opacity="0.6"/>
<path d="M281.63 392.06L361.771 368.265H638.229L706.211 394L730.72 392.06H947.968L991.755 354.23V45.77L947.968 7.94H52.0318L8.24545 45.77V354.23L52.0318 392.06H281.63Z" fill="#0D3954" fill-opacity="0.6"/>
<path fill-rule="evenodd" clip-rule="evenodd" d="M272.727 406H90.9092V408H272.727L275 407L272.727 406ZM726.136 408H909.091V406H727.273L726.136 408Z" fill="#8CEEED"/>
<path fill-rule="evenodd" clip-rule="evenodd" d="M272.727 406L362.5 372H637.5L727.273 406L726.136 408L636.364 374H363.636L275 407L272.727 406Z" fill="#8CEEED"/>
</svg>
