<svg width="1000" height="560" viewBox="0 0 1000 560" fill="none" xmlns="http://www.w3.org/2000/svg">
<path fill-rule="evenodd" clip-rule="evenodd" d="M5.98633 40.0128L8.22669 513.872L53.0339 547.769H295.363L363.191 525.287L283.231 546.075H54.1541L10.4671 513.025L8.22669 40.8602L51.9138 7.81057H945.819L989.506 40.8602L991.746 513.025L948.059 546.075H731.304L706.85 547.769H949.179L993.986 513.872L991.746 40.0128L946.939 6.11572H50.7936L5.98633 40.0128Z" fill="#0D3954" fill-opacity="0.5"/>
<path d="M283.231 546.075L363.191 525.287H639.022L706.85 547.769L731.304 546.075H948.059L991.746 513.025L989.506 40.8602L945.819 7.81057H51.9138L8.22669 40.8602L10.4671 513.025L54.1541 546.075H283.231Z" fill="#0D3954" fill-opacity="0.5"/>
<path fill-rule="evenodd" clip-rule="evenodd" d="M0 34.9454L2.26757 518.065L47.619 553.011H274.376H282.88L280.612 551.264H48.7528L4.53515 517.192L2.26757 35.819L46.4853 1.74727H951.247L995.465 35.819L997.732 517.192L953.515 551.264H734.127L731.859 553.011H954.649L1000 518.065L997.732 34.9454L952.381 0H45.3515L0 34.9454Z" fill="#8CEEED"/>
<path fill-rule="evenodd" clip-rule="evenodd" d="M272.2 558.252H90.7939V560H272.2L274.467 559.126L272.2 558.252ZM724.581 560H907.121V558.252H725.715L724.581 560Z" fill="#8CEEED"/>
<path fill-rule="evenodd" clip-rule="evenodd" d="M272.2 558.252L361.769 528.549H636.145L725.715 558.252L724.581 560L635.012 530.296H362.903L274.467 559.126L272.2 558.252Z" fill="#8CEEED"/>
</svg>
