<svg width="348" height="76" viewBox="0 0 348 76" fill="none" xmlns="http://www.w3.org/2000/svg">
<path d="M84 1H83.6492L83.3753 1.21913L38.3753 37.2191L37.3992 38L38.3753 38.7809L83.3753 74.7809L83.6492 75H84H264H264.351L264.625 74.7809L309.625 38.7809L310.601 38L309.625 37.2191L264.625 1.21913L264.351 1H264H84Z" fill="#0D1A41" stroke="currentcolor" stroke-width="2"/>
<path d="M86.6667 6H261.333L305 38L261.333 70H86.6667L43 38L86.6667 6Z" fill="#0D3954" fill-opacity="0.6"/>
<path d="M40.5 20H52.5L30 38L52.5 56H40.5L18 38L40.5 20Z" fill="currentcolor"/>
<path d="M22.5 20H34.5L12 38L34.5 56H22.5L0 38L22.5 20Z" fill="currentcolor"/>
<path d="M307.5 20H295.5L318 38L295.5 56H307.5L330 38L307.5 20Z" fill="currentcolor"/>
<path d="M325.5 20H313.5L336 38L313.5 56H325.5L348 38L325.5 20Z" fill="currentcolor"/>
</svg>
