<svg width="64" height="64" viewBox="0 0 64 64" fill="none" xmlns="http://www.w3.org/2000/svg">
<path d="M31.9998 32.0001C29.0665 32.0001 26.5554 30.9556 24.4665 28.8667C22.3776 26.7779 21.3332 24.2667 21.3332 21.3334C21.3332 18.4001 22.3776 15.889 24.4665 13.8001C26.5554 11.7112 29.0665 10.6667 31.9998 10.6667C34.9332 10.6667 37.4443 11.7112 39.5332 13.8001C41.6221 15.889 42.6665 18.4001 42.6665 21.3334C42.6665 24.2667 41.6221 26.7779 39.5332 28.8667C37.4443 30.9556 34.9332 32.0001 31.9998 32.0001ZM10.6665 53.3334V45.8667C10.6665 44.3556 11.0558 42.9672 11.8345 41.7014C12.6132 40.4356 13.6461 39.4685 14.9332 38.8001C17.6887 37.4223 20.4887 36.3894 23.3332 35.7014C26.1776 35.0134 29.0665 34.6685 31.9998 34.6667C34.9332 34.665 37.8221 35.0099 40.6665 35.7014C43.5109 36.393 46.3109 37.4259 49.0665 38.8001C50.3554 39.4667 51.3892 40.4339 52.1678 41.7014C52.9465 42.969 53.3349 44.3574 53.3332 45.8667V53.3334H10.6665Z" fill="currentcolor"/>
</svg>
