<svg width="160" height="160" viewBox="0 0 160 160" fill="none" xmlns="http://www.w3.org/2000/svg">
<path d="M73.2374 117.962C73.9366 118.659 74.4913 119.487 74.8699 120.399C75.2484 121.31 75.4433 122.288 75.4433 123.275C75.4433 124.262 75.2484 125.239 74.8699 126.151C74.4913 127.063 73.9366 127.891 73.2374 128.587L70.0374 131.787C66.6405 135.197 62.6014 137.899 58.1536 139.738C53.7058 141.577 48.9377 142.515 44.1249 142.5C36.8769 142.502 29.7912 140.355 23.764 136.329C17.7368 132.303 13.0391 126.581 10.2651 119.885C7.49115 113.188 6.76559 105.82 8.18022 98.7115C9.59486 91.603 13.0861 85.0738 18.2124 79.9499L39.9311 58.2311C44.5507 53.6122 50.3209 50.312 56.6443 48.6721C62.9677 47.0322 69.6146 47.1122 75.8967 48.9039C82.1788 50.6956 87.8678 54.1339 92.3748 58.8627C96.8818 63.5915 100.043 69.439 101.531 75.7999C101.778 76.767 101.829 77.7736 101.681 78.7607C101.533 79.7478 101.19 80.6955 100.672 81.5483C100.153 82.4011 99.4698 83.1418 98.6614 83.7271C97.8529 84.3123 96.9358 84.7303 95.9637 84.9566C94.9917 85.1829 93.9842 85.2129 93.0004 85.0448C92.0166 84.8767 91.0763 84.514 90.2345 83.9779C89.3926 83.4417 88.6663 82.743 88.098 81.9225C87.5297 81.1021 87.1309 80.1764 86.9249 79.1999C86.0418 75.4451 84.172 71.9942 81.5086 69.2041C78.8452 66.414 75.4849 64.3859 71.7752 63.3295C68.0654 62.273 64.1409 62.2265 60.4071 63.1948C56.6734 64.1632 53.2661 66.1111 50.5374 68.8374L28.8186 90.5561C25.7912 93.5811 23.7288 97.4359 22.8923 101.633C22.0557 105.83 22.4827 110.181 24.1191 114.136C25.7555 118.09 28.5278 121.471 32.0855 123.849C35.6432 126.228 39.8264 127.499 44.1061 127.5C46.9497 127.508 49.7668 126.952 52.3941 125.865C55.0215 124.777 57.4069 123.178 59.4124 121.162L62.6061 117.962C63.303 117.262 64.1313 116.707 65.0436 116.328C65.9558 115.948 66.9339 115.753 67.9217 115.753C68.9096 115.753 69.8877 115.948 70.7999 116.328C71.7121 116.707 72.5405 117.262 73.2374 117.962ZM141.769 28.2311C134.895 21.3594 125.573 17.499 115.853 17.499C106.133 17.499 96.8114 21.3594 89.9374 28.2311L86.7436 31.4249C85.3346 32.8338 84.5431 34.7448 84.5431 36.7374C84.5431 38.73 85.3346 40.6409 86.7436 42.0499C88.1526 43.4588 90.0635 44.2504 92.0561 44.2504C94.0487 44.2504 95.9596 43.4588 97.3686 42.0499L100.569 38.8499C104.63 34.7888 110.138 32.5072 115.881 32.5072C121.624 32.5072 127.132 34.7888 131.194 38.8499C135.255 42.911 137.536 48.4191 137.536 54.1624C137.536 59.9057 135.255 65.4138 131.194 69.4749L109.437 91.1624C107.432 93.1785 105.046 94.7767 102.419 95.8646C99.7918 96.9524 96.9748 97.5082 94.1311 97.4999C89.253 97.4964 84.519 95.8452 80.697 92.8139C76.875 89.7826 74.1891 85.5491 73.0749 80.7999C72.624 78.8621 71.4218 77.1829 69.7328 76.1315C68.0438 75.0801 66.0064 74.7428 64.0686 75.1936C62.1309 75.6445 60.4516 76.8467 59.4002 78.5357C58.3489 80.2247 58.0115 82.2621 58.4624 84.1999C60.3443 92.2429 64.888 99.4142 71.3567 104.551C77.8254 109.688 85.8397 112.489 94.0999 112.5H94.1311C98.9462 112.513 103.716 111.571 108.165 109.729C112.614 107.887 116.653 105.182 120.05 101.769L141.769 80.0499C145.172 76.6477 147.871 72.6084 149.713 68.1629C151.554 63.7173 152.502 58.9525 152.502 54.1405C152.502 49.3285 151.554 44.5637 149.713 40.1181C147.871 35.6726 145.172 31.6333 141.769 28.2311Z" fill="currentcolor"/>
</svg>
