<svg width="104" height="104" viewBox="0 0 104 104" fill="none" xmlns="http://www.w3.org/2000/svg">
<path d="M103 68.5858L102.707 68.2929L102 67.5858V36.4142L102.707 35.7071L103 35.4142V35V34.4142V34V18V17.5858L102.707 17.2929L86.7071 1.29289L86.4142 1H86H78H77.5858H77H76.5858L76.2929 1.29289L75.5858 2H64.4142L63.7071 1.29289L63.4142 1H63H62.4142H62H18H17.5858L17.2929 1.29289L1.29289 17.2929L1 17.5858V18V34V34.4142V35V35.4142L1.29289 35.7071L2 36.4142V67.5858L1.29289 68.2929L1 68.5858V69V69.5858V70V86V86.4142L1.29289 86.7071L17.2929 102.707L17.5858 103H18H26H26.4142H27H27.4142L27.7071 102.707L28.4142 102H39.5858L40.2929 102.707L40.5858 103H41H41.5858H42H86H86.4142L86.7071 102.707L102.707 86.7071L103 86.4142V86V70V69.5858V69V68.5858Z" fill="#0D1A41" stroke="currentcolor" stroke-width="2"/>
<path d="M82 102L80.6667 100H59.3333L58 102H82Z" fill="currentcolor"/>
<path d="M46 2L44.6667 4H23.3333L22 2H46Z" fill="currentcolor"/>
<path fill-rule="evenodd" clip-rule="evenodd" d="M20.72 6H83.28L98 20.72V83.28L83.28 98H20.72L6 83.28V20.72L20.72 6Z" fill="#0D3954" fill-opacity="0.6"/>
</svg>
