<svg width="34" height="34" viewBox="0 0 34 34" fill="none" xmlns="http://www.w3.org/2000/svg">
<path d="M33.5 22.44V22.2329L33.3536 22.0864L33.18 21.9129V12.0871L33.3536 11.9136L33.5 11.7671V11.56V11.4471V11.24V6.12V5.91289L33.3536 5.76645L28.2336 0.646447L28.0871 0.5H27.88H25.32H25.1129H25H24.7929L24.6464 0.646447L24.4729 0.82H21.0471L20.8736 0.646447L20.7271 0.5H20.52H20.4071H20.2H6.12H5.91289L5.76645 0.646447L0.646447 5.76645L0.5 5.91289V6.12V11.24V11.4471V11.56V11.7671L0.646447 11.9136L0.82 12.0871V21.9129L0.646447 22.0864L0.5 22.2329V22.44V22.5529V22.76V27.88V28.0871L0.646447 28.2336L5.76645 33.3536L5.91289 33.5H6.12H8.68H8.88711H9H9.20711L9.35355 33.3536L9.52711 33.18H12.9529L13.1264 33.3536L13.2729 33.5H13.48H13.5929H13.8H27.88H28.0871L28.2336 33.3536L33.3536 28.2336L33.5 28.0871V27.88V22.76V22.5529V22.44Z" fill="#0D1A41" stroke="#8CEEED"/>
<path d="M26.6001 33L26.1734 32.36H19.3468L18.9201 33H26.6001Z" fill="#8CEEED"/>
<path d="M15.0801 1L14.6534 1.64H7.82675L7.40008 1H15.0801Z" fill="#8CEEED"/>
<path fill-rule="evenodd" clip-rule="evenodd" d="M6.99067 2.28003H27.0099L31.7203 6.99043V27.0096L27.0099 31.72H6.99067L2.28027 27.0096V6.99043L6.99067 2.28003Z" fill="#0D3954" fill-opacity="0.6"/>
<path d="M12.2128 24.8171V25.5H11.5299V24.8171H12.2128ZM12.2128 24.1341V24.8171H11.5299V24.1341H12.2128ZM12.2128 23.4512V24.1341H11.5299V23.4512H12.2128ZM12.2128 22.7683V23.4512H11.5299V22.7683H12.2128ZM12.2128 22.0854V22.7683H11.5299V22.0854H12.2128ZM12.2128 21.4024V22.0854H11.5299V21.4024H12.2128ZM12.2128 20.7195V21.4024H11.5299V20.7195H12.2128ZM12.2128 20.0366V20.7195H11.5299V20.0366H12.2128ZM12.2128 19.3537V20.0366H11.5299V19.3537H12.2128ZM12.2128 18.6707V19.3537H11.5299V18.6707H12.2128ZM12.2128 17.9878V18.6707H11.5299V17.9878H12.2128ZM12.2128 17.3049V17.9878H11.5299V17.3049H12.2128ZM12.2128 16.622V17.3049H11.5299V16.622H12.2128ZM12.2128 15.939V16.622H11.5299V15.939H12.2128ZM12.2128 15.2561V15.939H11.5299V15.2561H12.2128ZM12.8958 15.2561V15.939H12.2128V15.2561H12.8958ZM12.8958 15.939V16.622H12.2128V15.939H12.8958ZM12.8958 16.622V17.3049H12.2128V16.622H12.8958ZM12.8958 17.3049V17.9878H12.2128V17.3049H12.8958ZM12.8958 17.9878V18.6707H12.2128V17.9878H12.8958ZM12.8958 18.6707V19.3537H12.2128V18.6707H12.8958ZM12.8958 19.3537V20.0366H12.2128V19.3537H12.8958ZM13.5787 20.0366V20.7195H12.8958V20.0366H13.5787ZM13.5787 20.7195V21.4024H12.8958V20.7195H13.5787ZM13.5787 21.4024V22.0854H12.8958V21.4024H13.5787ZM13.5787 22.0854V22.7683H12.8958V22.0854H13.5787ZM13.5787 22.7683V23.4512H12.8958V22.7683H13.5787ZM13.5787 23.4512V24.1341H12.8958V23.4512H13.5787ZM13.5787 24.1341V24.8171H12.8958V24.1341H13.5787ZM13.5787 24.8171V25.5H12.8958V24.8171H13.5787ZM14.2616 24.8171V25.5H13.5787V24.8171H14.2616ZM14.9446 24.8171V25.5H14.2616V24.8171H14.9446ZM14.9446 24.1341V24.8171H14.2616V24.1341H14.9446ZM14.9446 23.4512V24.1341H14.2616V23.4512H14.9446ZM14.9446 22.7683V23.4512H14.2616V22.7683H14.9446ZM14.9446 22.0854V22.7683H14.2616V22.0854H14.9446ZM14.9446 21.4024V22.0854H14.2616V21.4024H14.9446ZM14.9446 20.7195V21.4024H14.2616V20.7195H14.9446ZM14.9446 20.0366V20.7195H14.2616V20.0366H14.9446ZM14.2616 20.0366V20.7195H13.5787V20.0366H14.2616ZM14.2616 19.3537V20.0366H13.5787V19.3537H14.2616ZM14.2616 20.7195V21.4024H13.5787V20.7195H14.2616ZM14.2616 21.4024V22.0854H13.5787V21.4024H14.2616ZM14.2616 22.0854V22.7683H13.5787V22.0854H14.2616ZM14.2616 22.7683V23.4512H13.5787V22.7683H14.2616ZM14.2616 23.4512V24.1341H13.5787V23.4512H14.2616ZM14.2616 24.1341V24.8171H13.5787V24.1341H14.2616ZM12.8958 24.8171V25.5H12.2128V24.8171H12.8958ZM12.8958 24.1341V24.8171H12.2128V24.1341H12.8958ZM12.8958 23.4512V24.1341H12.2128V23.4512H12.8958ZM12.8958 22.7683V23.4512H12.2128V22.7683H12.8958ZM12.8958 22.0854V22.7683H12.2128V22.0854H12.8958ZM12.8958 21.4024V22.0854H12.2128V21.4024H12.8958ZM12.8958 20.7195V21.4024H12.2128V20.7195H12.8958ZM12.8958 20.0366V20.7195H12.2128V20.0366H12.8958ZM12.2128 8.42683V9.10976H11.5299V8.42683H12.2128ZM12.2128 9.10976V9.79268H11.5299V9.10976H12.2128ZM12.2128 9.79268V10.4756H11.5299V9.79268H12.2128ZM12.2128 10.4756V11.1585H11.5299V10.4756H12.2128ZM12.2128 11.1585V11.8415H11.5299V11.1585H12.2128ZM12.2128 11.8415V12.5244H11.5299V11.8415H12.2128ZM12.2128 12.5244V13.2073H11.5299V12.5244H12.2128ZM12.2128 13.2073V13.8902H11.5299V13.2073H12.2128ZM12.2128 13.8902V14.5732H11.5299V13.8902H12.2128ZM12.2128 14.5732V15.2561H11.5299V14.5732H12.2128ZM14.2616 8.42683V9.10976H13.5787V8.42683H14.2616ZM14.2616 9.10976V9.79268H13.5787V9.10976H14.2616ZM14.2616 9.79268V10.4756H13.5787V9.79268H14.2616ZM14.2616 10.4756V11.1585H13.5787V10.4756H14.2616ZM14.2616 11.1585V11.8415H13.5787V11.1585H14.2616ZM14.2616 11.8415V12.5244H13.5787V11.8415H14.2616ZM14.2616 13.2073V13.8902H13.5787V13.2073H14.2616ZM14.2616 13.8902V14.5732H13.5787V13.8902H14.2616ZM14.2616 14.5732V15.2561H13.5787V14.5732H14.2616ZM14.2616 15.2561V15.939H13.5787V15.2561H14.2616ZM14.2616 15.939V16.622H13.5787V15.939H14.2616ZM14.2616 16.622V17.3049H13.5787V16.622H14.2616ZM14.2616 17.3049V17.9878H13.5787V17.3049H14.2616ZM14.9446 17.9878V18.6707H14.2616V17.9878H14.9446ZM14.9446 18.6707V19.3537H14.2616V18.6707H14.9446ZM14.9446 19.3537V20.0366H14.2616V19.3537H14.9446ZM14.9446 17.3049V17.9878H14.2616V17.3049H14.9446ZM14.9446 16.622V17.3049H14.2616V16.622H14.9446ZM14.9446 15.939V16.622H14.2616V15.939H14.9446ZM14.9446 15.2561V15.939H14.2616V15.2561H14.9446ZM14.9446 14.5732V15.2561H14.2616V14.5732H14.9446ZM14.9446 13.8902V14.5732H14.2616V13.8902H14.9446ZM14.9446 13.2073V13.8902H14.2616V13.2073H14.9446ZM14.9446 12.5244V13.2073H14.2616V12.5244H14.9446ZM14.9446 11.8415V12.5244H14.2616V11.8415H14.9446ZM14.9446 11.1585V11.8415H14.2616V11.1585H14.9446ZM14.2616 12.5244V13.2073H13.5787V12.5244H14.2616ZM14.9446 10.4756V11.1585H14.2616V10.4756H14.9446ZM14.9446 9.79268V10.4756H14.2616V9.79268H14.9446ZM14.9446 9.10976V9.79268H14.2616V9.10976H14.9446ZM14.9446 8.42683V9.10976H14.2616V8.42683H14.9446ZM13.5787 8.42683V9.10976H12.8958V8.42683H13.5787ZM12.8958 8.42683V9.10976H12.2128V8.42683H12.8958ZM12.8958 9.10976V9.79268H12.2128V9.10976H12.8958ZM13.5787 9.10976V9.79268H12.8958V9.10976H13.5787ZM13.5787 9.79268V10.4756H12.8958V9.79268H13.5787ZM13.5787 10.4756V11.1585H12.8958V10.4756H13.5787ZM13.5787 11.1585V11.8415H12.8958V11.1585H13.5787ZM13.5787 11.8415V12.5244H12.8958V11.8415H13.5787ZM13.5787 12.5244V13.2073H12.8958V12.5244H13.5787ZM13.5787 13.2073V13.8902H12.8958V13.2073H13.5787ZM12.8958 13.8902V14.5732H12.2128V13.8902H12.8958ZM12.8958 14.5732V15.2561H12.2128V14.5732H12.8958ZM12.8958 13.2073V13.8902H12.2128V13.2073H12.8958ZM12.8958 12.5244V13.2073H12.2128V12.5244H12.8958ZM12.8958 11.8415V12.5244H12.2128V11.8415H12.8958ZM12.8958 11.1585V11.8415H12.2128V11.1585H12.8958ZM12.8958 10.4756V11.1585H12.2128V10.4756H12.8958ZM12.8958 9.79268V10.4756H12.2128V9.79268H12.8958ZM13.5787 13.8902V14.5732H12.8958V13.8902H13.5787ZM13.5787 14.5732V15.2561H12.8958V14.5732H13.5787ZM13.5787 15.2561V15.939H12.8958V15.2561H13.5787ZM13.5787 15.939V16.622H12.8958V15.939H13.5787ZM13.5787 16.622V17.3049H12.8958V16.622H13.5787ZM13.5787 17.3049V17.9878H12.8958V17.3049H13.5787ZM13.5787 17.9878V18.6707H12.8958V17.9878H13.5787ZM13.5787 18.6707V19.3537H12.8958V18.6707H13.5787ZM13.5787 19.3537V20.0366H12.8958V19.3537H13.5787ZM14.2616 18.6707V19.3537H13.5787V18.6707H14.2616ZM14.2616 17.9878V18.6707H13.5787V17.9878H14.2616ZM15.6275 16.622V17.3049H14.9446V16.622H15.6275ZM16.3104 16.622V17.3049H15.6275V16.622H16.3104ZM16.3104 17.3049V17.9878H15.6275V17.3049H16.3104ZM15.6275 17.3049V17.9878H14.9446V17.3049H15.6275ZM15.6275 15.2561V15.939H14.9446V15.2561H15.6275ZM16.3104 15.2561V15.939H15.6275V15.2561H16.3104ZM15.6275 17.9878V18.6707H14.9446V17.9878H15.6275ZM16.3104 17.9878V18.6707H15.6275V17.9878H16.3104ZM16.3104 15.939V16.622H15.6275V15.939H16.3104ZM15.6275 15.939V16.622H14.9446V15.939H15.6275ZM15.6275 8.42683V9.10976H14.9446V8.42683H15.6275ZM16.3104 8.42683V9.10976H15.6275V8.42683H16.3104ZM16.3104 9.10976V9.79268H15.6275V9.10976H16.3104ZM15.6275 9.10976V9.79268H14.9446V9.10976H15.6275ZM15.6275 9.79268V10.4756H14.9446V9.79268H15.6275ZM16.3104 9.79268V10.4756H15.6275V9.79268H16.3104ZM16.3104 10.4756V11.1585H15.6275V10.4756H16.3104ZM15.6275 10.4756V11.1585H14.9446V10.4756H15.6275ZM15.6275 11.1585V11.8415H14.9446V11.1585H15.6275ZM16.3104 11.1585V11.8415H15.6275V11.1585H16.3104ZM15.6275 24.8171V25.5H14.9446V24.8171H15.6275ZM16.3104 24.8171V25.5H15.6275V24.8171H16.3104ZM16.3104 24.1341V24.8171H15.6275V24.1341H16.3104ZM16.3104 23.4512V24.1341H15.6275V23.4512H16.3104ZM16.3104 22.7683V23.4512H15.6275V22.7683H16.3104ZM16.3104 22.0854V22.7683H15.6275V22.0854H16.3104ZM15.6275 22.0854V22.7683H14.9446V22.0854H15.6275ZM15.6275 22.7683V23.4512H14.9446V22.7683H15.6275ZM15.6275 23.4512V24.1341H14.9446V23.4512H15.6275ZM15.6275 24.1341V24.8171H14.9446V24.1341H15.6275ZM16.9933 15.2561V15.939H16.3104V15.2561H16.9933ZM17.6763 15.2561V15.939H16.9933V15.2561H17.6763ZM18.3592 15.2561V15.939H17.6763V15.2561H18.3592ZM19.0421 14.5732V15.2561H18.3592V14.5732H19.0421ZM19.725 13.8902V14.5732H19.0421V13.8902H19.725ZM19.725 13.2073V13.8902H19.0421V13.2073H19.725ZM19.725 12.5244V13.2073H19.0421V12.5244H19.725ZM19.0421 11.8415V12.5244H18.3592V11.8415H19.0421ZM18.3592 11.1585V11.8415H17.6763V11.1585H18.3592ZM17.6763 11.1585V11.8415H16.9933V11.1585H17.6763ZM16.9933 11.1585V11.8415H16.3104V11.1585H16.9933ZM16.9933 8.42683V9.10976H16.3104V8.42683H16.9933ZM17.6763 8.42683V9.10976H16.9933V8.42683H17.6763ZM18.3592 8.42683V9.10976H17.6763V8.42683H18.3592ZM19.0421 8.42683V9.10976H18.3592V8.42683H19.0421ZM19.0421 9.10976V9.79268H18.3592V9.10976H19.0421ZM19.0421 9.79268V10.4756H18.3592V9.79268H19.0421ZM19.0421 10.4756V11.1585H18.3592V10.4756H19.0421ZM18.3592 10.4756V11.1585H17.6763V10.4756H18.3592ZM18.3592 9.79268V10.4756H17.6763V9.79268H18.3592ZM17.6763 9.79268V10.4756H16.9933V9.79268H17.6763ZM16.9933 9.79268V10.4756H16.3104V9.79268H16.9933ZM16.9933 9.10976V9.79268H16.3104V9.10976H16.9933ZM17.6763 9.10976V9.79268H16.9933V9.10976H17.6763ZM18.3592 9.10976V9.79268H17.6763V9.10976H18.3592ZM16.9933 10.4756V11.1585H16.3104V10.4756H16.9933ZM17.6763 10.4756V11.1585H16.9933V10.4756H17.6763ZM19.0421 11.1585V11.8415H18.3592V11.1585H19.0421ZM19.725 11.8415V12.5244H19.0421V11.8415H19.725ZM19.725 11.1585V11.8415H19.0421V11.1585H19.725ZM19.725 10.4756V11.1585H19.0421V10.4756H19.725ZM19.725 9.79268V10.4756H19.0421V9.79268H19.725ZM19.725 9.10976V9.79268H19.0421V9.10976H19.725ZM19.725 8.42683V9.10976H19.0421V8.42683H19.725ZM19.725 14.5732V15.2561H19.0421V14.5732H19.725ZM19.725 15.2561V15.939H19.0421V15.2561H19.725ZM19.725 15.939V16.622H19.0421V15.939H19.725ZM19.725 16.622V17.3049H19.0421V16.622H19.725ZM19.0421 16.622V17.3049H18.3592V16.622H19.0421ZM18.3592 16.622V17.3049H17.6763V16.622H18.3592ZM17.6763 16.622V17.3049H16.9933V16.622H17.6763ZM16.9933 16.622V17.3049H16.3104V16.622H16.9933ZM16.9933 15.939V16.622H16.3104V15.939H16.9933ZM17.6763 15.939V16.622H16.9933V15.939H17.6763ZM18.3592 15.939V16.622H17.6763V15.939H18.3592ZM19.0421 15.939V16.622H18.3592V15.939H19.0421ZM19.0421 15.2561V15.939H18.3592V15.2561H19.0421ZM16.9933 17.3049V17.9878H16.3104V17.3049H16.9933ZM17.6763 17.3049V17.9878H16.9933V17.3049H17.6763ZM18.3592 17.3049V17.9878H17.6763V17.3049H18.3592ZM19.0421 17.3049V17.9878H18.3592V17.3049H19.0421ZM19.725 17.3049V17.9878H19.0421V17.3049H19.725ZM19.725 17.9878V18.6707H19.0421V17.9878H19.725ZM19.0421 17.9878V18.6707H18.3592V17.9878H19.0421ZM18.3592 17.9878V18.6707H17.6763V17.9878H18.3592ZM17.6763 17.9878V18.6707H16.9933V17.9878H17.6763ZM16.9933 17.9878V18.6707H16.3104V17.9878H16.9933ZM19.0421 18.6707V19.3537H18.3592V18.6707H19.0421ZM19.725 19.3537V20.0366H19.0421V19.3537H19.725ZM19.725 18.6707V19.3537H19.0421V18.6707H19.725ZM19.725 20.0366V20.7195H19.0421V20.0366H19.725ZM19.725 20.7195V21.4024H19.0421V20.7195H19.725ZM16.9933 22.0854V22.7683H16.3104V22.0854H16.9933ZM17.6763 22.0854V22.7683H16.9933V22.0854H17.6763ZM18.3592 22.0854V22.7683H17.6763V22.0854H18.3592ZM19.0421 21.4024V22.0854H18.3592V21.4024H19.0421ZM19.725 21.4024V22.0854H19.0421V21.4024H19.725ZM19.725 22.0854V22.7683H19.0421V22.0854H19.725ZM19.0421 22.0854V22.7683H18.3592V22.0854H19.0421ZM19.725 22.7683V23.4512H19.0421V22.7683H19.725ZM19.725 23.4512V24.1341H19.0421V23.4512H19.725ZM19.725 24.1341V24.8171H19.0421V24.1341H19.725ZM19.725 24.8171V25.5H19.0421V24.8171H19.725ZM19.0421 24.8171V25.5H18.3592V24.8171H19.0421ZM19.0421 24.1341V24.8171H18.3592V24.1341H19.0421ZM18.3592 24.1341V24.8171H17.6763V24.1341H18.3592ZM17.6763 24.8171V25.5H16.9933V24.8171H17.6763ZM16.9933 24.8171V25.5H16.3104V24.8171H16.9933ZM18.3592 24.8171V25.5H17.6763V24.8171H18.3592ZM17.6763 24.1341V24.8171H16.9933V24.1341H17.6763ZM16.9933 24.1341V24.8171H16.3104V24.1341H16.9933ZM16.9933 23.4512V24.1341H16.3104V23.4512H16.9933ZM17.6763 23.4512V24.1341H16.9933V23.4512H17.6763ZM18.3592 23.4512V24.1341H17.6763V23.4512H18.3592ZM19.0421 23.4512V24.1341H18.3592V23.4512H19.0421ZM19.0421 22.7683V23.4512H18.3592V22.7683H19.0421ZM18.3592 22.7683V23.4512H17.6763V22.7683H18.3592ZM17.6763 22.7683V23.4512H16.9933V22.7683H17.6763ZM16.9933 22.7683V23.4512H16.3104V22.7683H16.9933ZM20.408 9.10976V9.79268H19.725V9.10976H20.408ZM21.0909 9.10976V9.79268H20.408V9.10976H21.0909ZM21.0909 9.79268V10.4756H20.408V9.79268H21.0909ZM21.7738 9.79268V10.4756H21.0909V9.79268H21.7738ZM21.7738 10.4756V11.1585H21.0909V10.4756H21.7738ZM21.7738 11.1585V11.8415H21.0909V11.1585H21.7738ZM22.4567 11.1585V11.8415H21.7738V11.1585H22.4567ZM22.4567 11.8415V12.5244H21.7738V11.8415H22.4567ZM22.4567 12.5244V13.2073H21.7738V12.5244H22.4567ZM22.4567 13.2073V13.8902H21.7738V13.2073H22.4567ZM22.4567 13.8902V14.5732H21.7738V13.8902H22.4567ZM22.4567 14.5732V15.2561H21.7738V14.5732H22.4567ZM22.4567 15.2561V15.939H21.7738V15.2561H22.4567ZM21.7738 15.939V16.622H21.0909V15.939H21.7738ZM21.0909 16.622V17.3049H20.408V16.622H21.0909ZM21.7738 17.3049V17.9878H21.0909V17.3049H21.7738ZM22.4567 17.9878V18.6707H21.7738V17.9878H22.4567ZM20.408 24.1341V24.8171H19.725V24.1341H20.408ZM21.0909 24.1341V24.8171H20.408V24.1341H21.0909ZM21.7738 23.4512V24.1341H21.0909V23.4512H21.7738ZM22.4567 22.0854V22.7683H21.7738V22.0854H22.4567ZM21.0909 23.4512V24.1341H20.408V23.4512H21.0909ZM21.0909 22.7683V23.4512H20.408V22.7683H21.0909ZM21.7738 22.7683V23.4512H21.0909V22.7683H21.7738ZM22.4567 21.4024V22.0854H21.7738V21.4024H22.4567ZM22.4567 20.7195V21.4024H21.7738V20.7195H22.4567ZM22.4567 20.0366V20.7195H21.7738V20.0366H22.4567ZM22.4567 19.3537V20.0366H21.7738V19.3537H22.4567ZM22.4567 18.6707V19.3537H21.7738V18.6707H22.4567ZM20.408 17.3049V17.9878H19.725V17.3049H20.408ZM21.0909 17.3049V17.9878H20.408V17.3049H21.0909ZM21.0909 17.9878V18.6707H20.408V17.9878H21.0909ZM20.408 17.9878V18.6707H19.725V17.9878H20.408ZM21.7738 17.9878V18.6707H21.0909V17.9878H21.7738ZM21.7738 18.6707V19.3537H21.0909V18.6707H21.7738ZM21.7738 19.3537V20.0366H21.0909V19.3537H21.7738ZM21.7738 20.0366V20.7195H21.0909V20.0366H21.7738ZM21.7738 20.7195V21.4024H21.0909V20.7195H21.7738ZM21.7738 21.4024V22.0854H21.0909V21.4024H21.7738ZM21.7738 22.0854V22.7683H21.0909V22.0854H21.7738ZM21.0909 22.0854V22.7683H20.408V22.0854H21.0909ZM21.0909 21.4024V22.0854H20.408V21.4024H21.0909ZM21.0909 20.7195V21.4024H20.408V20.7195H21.0909ZM21.0909 20.0366V20.7195H20.408V20.0366H21.0909ZM21.0909 19.3537V20.0366H20.408V19.3537H21.0909ZM21.0909 18.6707V19.3537H20.408V18.6707H21.0909ZM20.408 18.6707V19.3537H19.725V18.6707H20.408ZM20.408 19.3537V20.0366H19.725V19.3537H20.408ZM20.408 20.0366V20.7195H19.725V20.0366H20.408ZM20.408 20.7195V21.4024H19.725V20.7195H20.408ZM20.408 21.4024V22.0854H19.725V21.4024H20.408ZM20.408 22.0854V22.7683H19.725V22.0854H20.408ZM20.408 22.7683V23.4512H19.725V22.7683H20.408ZM20.408 23.4512V24.1341H19.725V23.4512H20.408ZM20.408 9.79268V10.4756H19.725V9.79268H20.408ZM20.408 10.4756V11.1585H19.725V10.4756H20.408ZM20.408 11.1585V11.8415H19.725V11.1585H20.408ZM20.408 11.8415V12.5244H19.725V11.8415H20.408ZM20.408 12.5244V13.2073H19.725V12.5244H20.408ZM20.408 13.2073V13.8902H19.725V13.2073H20.408ZM20.408 13.8902V14.5732H19.725V13.8902H20.408ZM20.408 14.5732V15.2561H19.725V14.5732H20.408ZM20.408 15.2561V15.939H19.725V15.2561H20.408ZM20.408 15.939V16.622H19.725V15.939H20.408ZM20.408 16.622V17.3049H19.725V16.622H20.408ZM21.0909 15.939V16.622H20.408V15.939H21.0909ZM21.0909 15.2561V15.939H20.408V15.2561H21.0909ZM21.0909 14.5732V15.2561H20.408V14.5732H21.0909ZM21.0909 13.8902V14.5732H20.408V13.8902H21.0909ZM21.0909 13.2073V13.8902H20.408V13.2073H21.0909ZM21.0909 12.5244V13.2073H20.408V12.5244H21.0909ZM21.0909 11.8415V12.5244H20.408V11.8415H21.0909ZM21.0909 11.1585V11.8415H20.408V11.1585H21.0909ZM21.0909 10.4756V11.1585H20.408V10.4756H21.0909ZM21.7738 11.8415V12.5244H21.0909V11.8415H21.7738ZM21.7738 12.5244V13.2073H21.0909V12.5244H21.7738ZM21.7738 13.2073V13.8902H21.0909V13.2073H21.7738ZM21.7738 13.8902V14.5732H21.0909V13.8902H21.7738ZM21.7738 14.5732V15.2561H21.0909V14.5732H21.7738ZM21.7738 15.2561V15.939H21.0909V15.2561H21.7738Z" fill="#8CEEED"/>
</svg>
