<svg width="1000" height="640" viewBox="0 0 1000 640" fill="none" xmlns="http://www.w3.org/2000/svg">
<path fill-rule="evenodd" clip-rule="evenodd" d="M5.98535 45.7287L8.22571 587.282L53.033 626.022H295.362L363.19 600.327L283.23 624.085H54.1532L10.4661 586.314L8.22571 46.6972L51.9128 8.92623H945.818L989.505 46.6972L991.745 586.314L948.058 624.085H731.303L706.849 626.022H949.178L993.985 587.282L991.745 45.7287L946.938 6.98926H50.7926L5.98535 45.7287Z" fill="#0D3954"/>
<path d="M283.23 624.085L363.19 600.327H639.022L706.849 626.022L731.303 624.085H948.058L991.745 586.314L989.505 46.6972L945.818 8.92623H51.9128L8.22571 46.6972L10.4661 586.314L54.1532 624.085H283.23Z" fill="#0D3954"/>
<path fill-rule="evenodd" clip-rule="evenodd" d="M0 39.9376L2.26757 592.075L47.619 632.012H274.376H282.88L280.612 630.015H48.7528L4.53515 591.076L2.26757 40.936L46.4853 1.99688H951.247L995.465 40.936L997.732 591.076L953.515 630.015H734.127L731.859 632.012H954.649L1000 592.075L997.732 39.9376L952.381 0H45.3515L0 39.9376Z" fill="#8CEEED"/>
<path fill-rule="evenodd" clip-rule="evenodd" d="M272.2 638.003H90.7939V640H272.2L274.467 639.002L272.2 638.003ZM724.581 640H907.121V638.003H725.715L724.581 640Z" fill="#8CEEED"/>
<path fill-rule="evenodd" clip-rule="evenodd" d="M272.2 638.003L361.769 604.056H636.145L725.715 638.003L724.581 640L635.012 606.053H362.903L274.467 639.002L272.2 638.003Z" fill="#8CEEED"/>
</svg>
